<svg width="44" height="46" viewBox="0 0 44 46" fill="none" xmlns="http://www.w3.org/2000/svg">
<ellipse cx="21" cy="20.9298" rx="21" ry="20.9298" fill="#F7FAFC"/>
<path opacity="0.5" d="M30.6262 9.72411C30.0362 9.13408 29.4206 8.61562 28.7841 8.11798C34.1815 15.0422 34.1654 24.5755 28.3705 30.3704C22.5756 36.1653 13.0499 36.1891 6.11806 30.784C6.6157 31.4205 7.13416 32.0361 7.72419 32.6261C14.7049 39.6069 25.4963 40.141 31.8187 33.8186C38.141 27.4963 37.607 16.7049 30.6262 9.72411Z" fill="#FF889D"/>
<path fill-rule="evenodd" clip-rule="evenodd" d="M19.7675 12.9063C20.2549 12.865 20.7451 12.865 21.2325 12.9063C21.2787 12.9101 21.3711 12.9513 21.4083 13.0888L21.7791 14.4701C21.9676 15.1702 22.4846 15.6789 23.0581 15.9564C23.2813 16.0639 23.4955 16.1852 23.7008 16.3189C24.2358 16.6665 24.9452 16.8477 25.6636 16.6565L27.0773 16.2777C27.2185 16.2402 27.3018 16.2977 27.3275 16.3352C27.6084 16.7227 27.8535 17.1365 28.0626 17.5715C28.0806 17.6102 28.0908 17.709 27.9869 17.809L26.9414 18.8165C26.4141 19.3241 26.2204 20.0128 26.2614 20.6366C26.2772 20.8789 26.2772 21.1219 26.2614 21.3641C26.2204 21.9879 26.4141 22.6767 26.9414 23.1842L27.9869 24.1917C28.0895 24.2917 28.0806 24.3905 28.0626 24.4292C27.8554 24.862 27.6094 25.2761 27.3275 25.6668C27.3018 25.703 27.2172 25.7593 27.0773 25.723L25.6623 25.3443C24.9452 25.153 24.2358 25.3343 23.7008 25.6818C23.4955 25.8155 23.2813 25.9368 23.0594 26.0443C22.4834 26.3218 21.9676 26.8293 21.7791 27.5306L21.4083 28.9119C21.3711 29.0494 21.2787 29.0907 21.2325 29.0944C20.7451 29.1356 20.2549 29.1356 19.7675 29.0944C19.7213 29.0907 19.6289 29.0482 19.5917 28.9119L19.221 27.5306C19.0324 26.8306 18.5154 26.3218 17.942 26.0443C17.72 25.937 17.5053 25.8159 17.2992 25.6818C16.7643 25.3343 16.0548 25.153 15.3364 25.3443L13.9227 25.723C13.7816 25.7605 13.6982 25.703 13.6725 25.6655C13.3907 25.2753 13.1447 24.8616 12.9375 24.4292C12.9195 24.3905 12.9092 24.2917 13.0131 24.1917L14.0587 23.1842C14.586 22.6767 14.7797 21.9879 14.7386 21.3641C14.7228 21.1219 14.7228 20.8789 14.7386 20.6366C14.7797 20.0128 14.586 19.3241 14.0587 18.8165L13.0131 17.809C12.9105 17.709 12.9195 17.6102 12.9375 17.5715C13.1443 17.1385 13.3903 16.7244 13.6725 16.3339C13.6982 16.2977 13.7829 16.2402 13.9227 16.2777L15.3377 16.6565C16.0549 16.8477 16.7643 16.6665 17.2992 16.3189C17.5045 16.1852 17.7187 16.0639 17.9407 15.9564C18.5167 15.6789 19.0324 15.1714 19.221 14.4701L19.5917 13.0888C19.6289 12.9513 19.7213 12.9101 19.7675 12.9063ZM20.5 11C20.1973 11 19.8971 11.0125 19.6007 11.0375C18.6475 11.1188 17.9458 11.8063 17.7303 12.6138L17.3583 13.9964C17.3364 14.0789 17.2582 14.1939 17.0876 14.2764C16.7916 14.4191 16.5053 14.5803 16.2306 14.7589C16.0728 14.8614 15.9317 14.8714 15.8457 14.8476L14.432 14.4701C13.6058 14.2489 12.6462 14.4951 12.0972 15.2577C11.7508 15.7379 11.4485 16.2469 11.194 16.779C10.7899 17.6227 11.0516 18.5565 11.6597 19.1428L12.7053 20.1503C12.7694 20.2103 12.831 20.3341 12.8181 20.5178C12.7972 20.8392 12.7972 21.1615 12.8181 21.4829C12.831 21.6666 12.7694 21.7904 12.7053 21.8504L11.6597 22.8579C11.0516 23.4442 10.7899 24.378 11.194 25.2218C11.4506 25.7568 11.7534 26.2656 12.0972 26.7443C12.6462 27.5056 13.6058 27.7519 14.432 27.5319L15.847 27.1531C15.9317 27.1293 16.0728 27.1393 16.2306 27.2418C16.5039 27.4206 16.7899 27.5819 17.0876 27.7244C17.2582 27.8069 17.3364 27.9219 17.3595 28.0044L17.7303 29.3869C17.9471 30.1945 18.6475 30.882 19.6007 30.962C20.1991 31.0127 20.8009 31.0127 21.3993 30.962C22.3525 30.882 23.0542 30.1945 23.2698 29.3869L23.6418 28.0044C23.6636 27.9219 23.7419 27.8069 23.9125 27.7244C24.2085 27.5817 24.4947 27.4205 24.7694 27.2418C24.9272 27.1393 25.0684 27.1293 25.1543 27.1531L26.568 27.5306C27.3942 27.7519 28.3538 27.5056 28.9029 26.7431C29.2467 26.2656 29.5507 25.7568 29.806 25.2218C30.2101 24.378 29.9484 23.4442 29.3391 22.8579L28.2948 21.8504C28.2306 21.7904 28.1691 21.6666 28.1819 21.4829C28.2028 21.1615 28.2028 20.8392 28.1819 20.5178C28.1691 20.3341 28.2319 20.2103 28.2948 20.1503L29.3391 19.1428C29.9484 18.5565 30.2101 17.6227 29.806 16.779C29.5515 16.2466 29.2493 15.7371 28.9029 15.2564C28.3538 14.4951 27.3942 14.2489 26.568 14.4689L25.153 14.8476C25.0684 14.8714 24.9272 14.8614 24.7694 14.7589C24.4947 14.5803 24.2085 14.4191 23.9125 14.2764C23.7419 14.1939 23.6636 14.0789 23.6405 13.9964L23.271 12.6126C23.053 11.8063 22.3525 11.1188 21.3993 11.0388C21.1003 11.0132 20.8002 11.0002 20.5 11V11ZM22.4243 21.0004C22.4243 21.4977 22.2216 21.9746 21.8607 22.3262C21.4998 22.6779 21.0104 22.8754 20.5 22.8754C19.9897 22.8754 19.5002 22.6779 19.1393 22.3262C18.7784 21.9746 18.5757 21.4977 18.5757 21.0004C18.5757 20.5031 18.7784 20.0261 19.1393 19.6745C19.5002 19.3228 19.9897 19.1253 20.5 19.1253C21.0104 19.1253 21.4998 19.3228 21.8607 19.6745C22.2216 20.0261 22.4243 20.5031 22.4243 21.0004ZM24.3487 21.0004C24.3487 21.995 23.9432 22.9488 23.2214 23.6521C22.4997 24.3554 21.5207 24.7505 20.5 24.7505C19.4793 24.7505 18.5004 24.3554 17.7786 23.6521C17.0569 22.9488 16.6514 21.995 16.6514 21.0004C16.6514 20.0058 17.0569 19.0519 17.7786 18.3486C18.5004 17.6453 19.4793 17.2502 20.5 17.2502C21.5207 17.2502 22.4997 17.6453 23.2214 18.3486C23.9432 19.0519 24.3487 20.0058 24.3487 21.0004Z" fill="#1A202C"/>
<path d="M20.45 39C12.19 39 5.01 33.41 3 25.41L5.91 24.68C7.58 31.34 13.56 36 20.45 36C28.72 36 35.45 29.27 35.45 21C35.45 12.73 28.72 6 20.45 6C14.72 6 9.57 9.19 7.01 14.32L4.33 12.99C7.39 6.83 13.57 3 20.45 3C30.37 3 38.45 11.07 38.45 21C38.45 30.93 30.37 39 20.45 39Z" fill="#1A202C"/>
<path d="M11.2777 14.25L5.0577 20.39C4.7877 20.66 4.3177 20.53 4.2177 20.16L2.0177 11.71C1.9177 11.34 2.2577 11 2.6277 11.1L11.0577 13.41C11.4277 13.51 11.5477 13.98 11.2777 14.25Z" fill="#C4C4C4"/>
<path d="M11.2777 14.25L5.0577 20.39C4.7877 20.66 4.3177 20.53 4.2177 20.16L2.0177 11.71C1.9177 11.34 2.2577 11 2.6277 11.1L11.0577 13.41C11.4277 13.51 11.5477 13.98 11.2777 14.25Z" fill="url(#paint0_linear_841_15911)"/>
<defs>
<linearGradient id="paint0_linear_841_15911" x1="6.70618" y1="20.224" x2="5.15483" y2="11.9554" gradientUnits="userSpaceOnUse">
<stop stop-color="#FF2148"/>
<stop offset="1" stop-color="#FF4667"/>
</linearGradient>
</defs>
</svg>
